<?xml version="1.0" encoding="UTF-8" standalone="no"?>
<svg
   xmlns:dc="http://purl.org/dc/elements/1.1/"
   xmlns:cc="http://creativecommons.org/ns#"
   xmlns:rdf="http://www.w3.org/1999/02/22-rdf-syntax-ns#"
   xmlns:svg="http://www.w3.org/2000/svg"
   xmlns="http://www.w3.org/2000/svg"
   xmlns:sodipodi="http://sodipodi.sourceforge.net/DTD/sodipodi-0.dtd"
   xmlns:inkscape="http://www.inkscape.org/namespaces/inkscape"
   version="1.1"
   id="Calque_1"
   x="0px"
   y="0px"
   viewBox="0 0 209.9995 102.505"
   xml:space="preserve"
   sodipodi:docname="tvasports-v-logo.svg"
   width="209.9995"
   height="102.505"
   inkscape:version="1.0.2-2 (e86c870879, 2021-01-15)"><metadata
   id="metadata33"><rdf:RDF><cc:Work
       rdf:about=""><dc:format>image/svg+xml</dc:format><dc:type
         rdf:resource="http://purl.org/dc/dcmitype/StillImage" /><dc:title></dc:title></cc:Work></rdf:RDF></metadata><defs
   id="defs31" /><sodipodi:namedview
   pagecolor="#ffffff"
   bordercolor="#666666"
   borderopacity="1"
   objecttolerance="10"
   gridtolerance="10"
   guidetolerance="10"
   inkscape:pageopacity="0"
   inkscape:pageshadow="2"
   inkscape:window-width="1920"
   inkscape:window-height="1017"
   id="namedview29"
   showgrid="false"
   fit-margin-left="5"
   fit-margin-top="5"
   fit-margin-bottom="5"
   fit-margin-right="5"
   inkscape:zoom="1.3494058"
   inkscape:cx="231.97505"
   inkscape:cy="136.32226"
   inkscape:window-x="1912"
   inkscape:window-y="-8"
   inkscape:window-maximized="1"
   inkscape:current-layer="Calque_1" />

<g
   id="g871"
   transform="matrix(0.66454741,0,0,0.66454741,5.0149599,-11.746595)"><g
     id="g14">
	<path
   d="M 26.6,119.8 H 32 c 12.7,0 19.4,5.6 17.8,13.8 l -0.2,1.2 H 35.3 l 0.1,-0.7 c 0.4,-2.6 -1.3,-4 -7.4,-4 h -1.6 c -6,0 -7.4,0.9 -7.8,2.6 -0.3,1.3 0.5,1.9 3.6,2.6 l 14.2,3 c 8.3,1.8 12,6.4 10.7,13.2 -1.6,8.1 -8.1,12.9 -22.6,12.9 h -5.3 c -13.5,0 -20.6,-5.5 -19,-13.8 l 0.2,-1.2 h 14.2 l -0.1,0.7 c -0.4,2.6 1.7,4 8.5,4 h 1.6 c 6.7,0 8.4,-1.1 8.7,-2.7 0.4,-1.5 -0.5,-2 -4.4,-2.9 l -14,-3 C 7,143.8 3.8,139.4 5.1,132.6 c 1.7,-8.3 7.6,-12.8 21.5,-12.8"
   id="path2" />
	<path
   d="m 70.9,132.1 -2,9.4 h 11.5 c 3.8,0 5.9,-1.6 6.5,-4.6 0.6,-3.1 -0.9,-4.7 -4.7,-4.7 z m -11.5,-12 H 86 c 12.5,0 16.8,7.1 14.8,17.6 -2,10.8 -9.4,15.8 -20.7,15.8 H 66.3 L 64.1,164 H 50 Z"
   id="path4" />
	<path
   d="m 130.1,132.4 h -0.6 c -6.2,0 -10.7,3.4 -12.1,9.5 -1.2,6 1.8,9.8 9.1,9.8 h 0.6 c 6.2,0 10.7,-3.4 11.9,-9.4 1.4,-6.1 -1.6,-9.9 -8.9,-9.9 m -4,31.9 h -2 c -15.2,0 -23.6,-9.4 -20.7,-23.1 3,-14.1 13.7,-21.4 26.9,-21.4 h 2 c 15.2,0 23.7,9.5 20.8,23.1 -2.9,14.2 -13.7,21.4 -27,21.4"
   id="path6" />
	<path
   d="m 175.3,132.1 -1.8,8.4 h 11.1 c 3.8,0 5.9,-1.5 6.5,-4.2 0.6,-2.7 -0.9,-4.3 -4.7,-4.3 h -11.1 z m -11.5,-12 h 26.4 c 12.5,0 16.8,6.9 14.8,17 -1.3,6 -5.3,9.9 -10.9,11.6 2.3,0.9 3.6,2.5 4.5,4.9 l 3.4,9.2 -0.2,1.2 h -14.9 l -2.3,-7.5 c -1.3,-4.2 -2.9,-5.4 -6.8,-5.4 h -6.3 l -2.8,12.9 h -14 z"
   id="path8" />
	<polygon
   points="216.6,164 231.5,164 238.1,132.7 252.5,132.7 255.1,120.1 211.6,120.1 208.9,132.7 223.2,132.7 "
   id="polygon10" />
	<path
   d="m 277.6,119.8 h 5.3 c 12.7,0 19.4,5.6 17.8,13.8 l -0.2,1.2 h -14.2 l 0.1,-0.7 c 0.4,-2.6 -1.3,-4 -7.4,-4 h -1.6 c -6,0 -7.4,0.9 -7.8,2.6 -0.3,1.3 0.5,1.9 3.6,2.6 l 14.2,3 c 8.3,1.8 12,6.4 10.7,13.2 -1.6,8.1 -8.1,12.9 -22.6,12.9 h -5.3 c -13.5,0 -20.6,-5.5 -19,-13.8 l 0.2,-1.2 h 14.2 l -0.1,0.7 c -0.4,2.6 1.7,4 8.5,4 h 1.6 c 6.7,0 8.4,-1.1 8.7,-2.7 0.4,-1.5 -0.5,-2 -4.4,-2.9 l -14,-3 c -7.9,-1.7 -11.1,-6.1 -9.8,-12.9 1.7,-8.3 7.6,-12.8 21.5,-12.8"
   id="path12" />
</g><g
     id="g26">
	<path
   d="M 101.5,25.2 H 57.2 c -6.5,0 -11.1,4.7 -11.1,10.8 0,6.2 4.7,10.8 11.1,10.8 h 11 v 33.4 c 0,7.2 4.9,11.5 11.1,11.5 6.2,0 11.1,-4.3 11.1,-11.5 V 46.9 h 11 c 6.5,0 11.1,-4.7 11.1,-10.8 0.1,-6.2 -4.5,-10.9 -11,-10.9 z"
   id="path16" />
	<path
   d="m 143.8,32.8 c -2.7,-5.2 -6.2,-7.6 -10.6,-7.6 -6.4,0 -11.1,4.8 -11.1,10.9 0,2.2 0.5,4.2 1.7,6.6 l 20.7,41.4 c 2.7,5.2 6.2,7.6 10.6,7.6 6.4,0 11.1,-4.8 11.1,-10.9 0,-2.2 -0.5,-4.2 -1.7,-6.6 z"
   id="path18" />
	<circle
   cx="177.3"
   cy="36.599998"
   id="ellipse20"
   r="11.3" />
	<circle
   cx="199.60001"
   cy="80.5"
   r="11.3"
   id="circle22" />
	<path
   d="M 253.2,74.3 232.5,32.9 c -2.7,-5.2 -6.2,-7.6 -10.6,-7.6 -6.4,0 -11.1,4.8 -11.1,10.9 0,2.2 0.5,4.2 1.7,6.6 l 20.7,41.4 c 2.7,5.2 6.2,7.6 10.6,7.6 6.4,0 11.1,-4.8 11.1,-10.9 0,-2.2 -0.5,-4.2 -1.7,-6.6 z"
   id="path24" />
</g></g>
</svg>
