    <svg width="54" height="70" viewBox="0 0 54 70" xmlns="http://www.w3.org/2000/svg">
    <path d="M13.8809 0H21.4V3.14417H17.025V6.28833H21.4V9.4325H13.8809V0ZM22.9021 0H30.4242V2.73583H26.0492V3.28125H30.4242V9.56958H22.9021V6.69958H27.2771V6.15125H22.9021V0ZM31.9292 0H39.4454V2.73583H35.0704V3.28125H39.4454V9.56958H31.9292V6.69958H36.3042V6.15125H31.9292V0Z" />
    <path fill-rule="evenodd" clip-rule="evenodd" d="M26.9738 70L6.72042 64.3767L0.75 13.7579H53.25L47.2825 64.3709L26.9738 70ZM12.5538 36.6713L13.1108 42.8779H34.6271L33.9067 50.9279L26.9825 52.8004H26.9767L20.0642 50.9338L19.6208 45.9842H13.3879L14.2571 55.7317L26.9738 59.2609L39.7108 55.7317L41.2625 38.3367L41.4142 36.6713L42.5342 24.1034H11.4367L12.0025 30.3129H35.7325L35.1667 36.6713H12.5538Z" />
    </svg>