<svg  viewBox="0 0 24 24" xmlns="http://www.w3.org/2000/svg">
<path d="M2 17V20H4V16H3C2.45 16 2 16.45 2 17ZM9 16H5V20L9.69 19.99C10.07 19.99 10.41 19.78 10.58 19.44L11.45 17.54L9.86 14.06L9 16ZM21.71 16.29C21.6166 16.1973 21.5057 16.124 21.3839 16.0742C21.2621 16.0245 21.1316 15.9992 21 16H20V20H22V17C22 16.72 21.89 16.47 21.71 16.29ZM13.6 12.84L17.65 4H14.3L12.54 7.97L12.05 9.07L12 9.21L9.7 4H6.35L10.4 12.84L11.92 16.16L12 16.34L13.42 19.44C13.59 19.78 13.93 19.99 14.31 19.99L19 20V16H15L13.6 12.84Z"/>
</svg>
