<svg width="24" height="24" viewBox="0 0 24 24" fill="none" xmlns="http://www.w3.org/2000/svg">
<path d="M12 5.25C6.78225 5.25 1.5 6.5385 1.5 9V15C1.5 17.4615 6.78225 18.75 12 18.75C17.2177 18.75 22.5 17.4615 22.5 15V9C22.5 6.5385 17.2177 5.25 12 5.25ZM12 6.75C17.583 6.75 21 8.2065 21 9C21 9.6945 18.3833 10.896 13.989 11.1855C13.3269 11.229 12.6635 11.2505 12 11.25C6.417 11.25 3 9.7935 3 9C3 8.2065 6.417 6.75 12 6.75ZM3 11.0302C3.045 11.0565 3.1005 11.0783 3.14625 11.1038C3.39271 11.2394 3.64661 11.3611 3.90675 11.4683C4.16625 11.5763 4.43625 11.6798 4.72725 11.7743C5.337 11.973 6.021 12.1343 6.738 12.2723C6.95475 12.3135 7.17825 12.3473 7.40175 12.3825C8.03875 12.486 8.697 12.567 9.3765 12.6255C10.239 12.699 11.1157 12.75 12 12.75C12.8843 12.75 13.7617 12.699 14.6235 12.6255C15.2846 12.5695 15.9433 12.4884 16.5983 12.3825C16.8218 12.3473 17.0453 12.3135 17.262 12.2723C17.979 12.1343 18.663 11.9723 19.2728 11.7743C19.628 11.657 19.9772 11.5221 20.319 11.37C20.5007 11.2884 20.6791 11.1996 20.8538 11.1038C20.8995 11.0783 20.9557 11.0565 21 11.0302V15C21 15.7935 17.583 17.25 12 17.25C6.417 17.25 3 15.7935 3 15V11.0302Z"/>
</svg>
