<svg width="24" height="24" viewBox="0 0 24 24" xmlns="http://www.w3.org/2000/svg">
<path d="M4.70575 1.2175L7.237 7.88875C7.24649 7.91354 7.25062 7.94005 7.2491 7.96655C7.24758 7.99305 7.24045 8.01892 7.22818 8.04246C7.21592 8.066 7.1988 8.08666 7.17795 8.10309C7.1571 8.11952 7.133 8.13133 7.10725 8.13775L3.34225 9.07075C3.30375 9.08041 3.2693 9.10204 3.24388 9.13253C3.21846 9.16302 3.20337 9.20079 3.20078 9.2404C3.1982 9.28001 3.20825 9.31942 3.2295 9.35296C3.25074 9.38649 3.28208 9.41242 3.319 9.427L6.29575 10.606C6.32472 10.6175 6.35037 10.636 6.3704 10.6598C6.39042 10.6837 6.40418 10.7122 6.41043 10.7427C6.41668 10.7732 6.41523 10.8048 6.40621 10.8346C6.39719 10.8645 6.38088 10.8916 6.35875 10.9135L2.5 14.7392C2.365 14.8727 2.49175 15.0992 2.67625 15.0542L8.25025 13.7177C8.27459 13.7119 8.29986 13.711 8.32457 13.715C8.34928 13.7191 8.37292 13.7281 8.3941 13.7414C8.41528 13.7548 8.43357 13.7722 8.4479 13.7928C8.46222 13.8133 8.47229 13.8365 8.4775 13.861L10.1853 21.8185C10.1935 21.8577 10.2142 21.8933 10.2442 21.9199C10.2742 21.9466 10.3119 21.9629 10.3518 21.9665C10.3918 21.9701 10.4318 21.9608 10.4661 21.94C10.5004 21.9191 10.5271 21.8879 10.5423 21.8507L13.2198 15.3235C13.2307 15.297 13.2476 15.2733 13.2691 15.2544C13.2906 15.2354 13.3162 15.2216 13.3438 15.2141C13.3715 15.2065 13.4005 15.2055 13.4287 15.2109C13.4569 15.2164 13.4834 15.2282 13.5063 15.2455L16.3885 17.4265C16.4202 17.4505 16.4588 17.4637 16.4986 17.4644C16.5383 17.465 16.5773 17.4529 16.6097 17.43C16.6422 17.407 16.6666 17.3743 16.6792 17.3366C16.6919 17.2989 16.6923 17.2582 16.6803 17.2202L15.6318 13.93C15.6234 13.9034 15.621 13.8754 15.6248 13.8478C15.6286 13.8202 15.6386 13.7938 15.6539 13.7705C15.6692 13.7473 15.6895 13.7277 15.7133 13.7132C15.7371 13.6988 15.7638 13.6898 15.7915 13.687L22.2078 13.0188C22.2469 13.0148 22.2839 12.9987 22.3134 12.9726C22.3429 12.9464 22.3634 12.9117 22.3721 12.8733C22.3807 12.8348 22.377 12.7947 22.3615 12.7584C22.346 12.7222 22.3195 12.6918 22.2858 12.6715L16.7778 9.3295C16.754 9.31515 16.7337 9.29569 16.7184 9.27254C16.703 9.2494 16.693 9.22313 16.6891 9.19565C16.6851 9.16816 16.6873 9.14014 16.6955 9.11362C16.7037 9.08709 16.7177 9.06271 16.7365 9.04225L20.4325 5.0155C20.4597 4.98588 20.4766 4.94832 20.4808 4.90835C20.485 4.86837 20.4763 4.82811 20.4558 4.79349C20.4354 4.75887 20.4044 4.73173 20.3674 4.71606C20.3304 4.7004 20.2893 4.69705 20.2503 4.7065L14.2728 6.15925C14.2466 6.16561 14.2193 6.16626 14.1929 6.16115C14.1664 6.15604 14.1414 6.14529 14.1195 6.12963C14.0976 6.11397 14.0793 6.09378 14.0659 6.07041C14.0524 6.04705 14.0442 6.02108 14.0418 5.99425L13.7305 2.62675C13.7269 2.58963 13.7123 2.55443 13.6886 2.52565C13.6648 2.49687 13.6331 2.47582 13.5973 2.46519C13.5616 2.45456 13.5235 2.45484 13.4879 2.46598C13.4523 2.47713 13.4208 2.49863 13.3975 2.52775L11.1745 5.31925C11.1443 5.35728 11.1006 5.38213 11.0525 5.38856C11.0043 5.395 10.9556 5.38252 10.9165 5.35375L4.993 1C4.843 0.889 4.63975 1.04275 4.70575 1.2175ZM8.4775 11.8435L9.3775 10.9338C9.39749 10.9136 9.41265 10.8892 9.42183 10.8624C9.43102 10.8355 9.43399 10.8069 9.43052 10.7788C9.42705 10.7506 9.41724 10.7236 9.40182 10.6998C9.3864 10.6759 9.36578 10.6559 9.3415 10.6413L8.10775 9.901C8.07512 9.88114 8.04933 9.85178 8.03384 9.81686C8.01835 9.78194 8.0139 9.74313 8.02108 9.70561C8.02826 9.66809 8.04672 9.63365 8.07401 9.60692C8.10129 9.58018 8.13609 9.56242 8.17375 9.556L9.71125 9.29875C9.73744 9.29433 9.7624 9.2844 9.78447 9.26961C9.80653 9.25482 9.82521 9.23551 9.83925 9.21296C9.85329 9.19041 9.86238 9.16514 9.86591 9.13881C9.86945 9.11248 9.86735 9.08571 9.85975 9.06025L9.19075 6.82825C9.17936 6.79017 9.18036 6.74946 9.19361 6.71199C9.20686 6.67451 9.23168 6.64222 9.26447 6.61977C9.29727 6.59732 9.33636 6.58588 9.37608 6.58709C9.41581 6.58829 9.45413 6.6021 9.4855 6.6265L11.2473 8.00275C11.2686 8.01949 11.2934 8.03139 11.3198 8.03762C11.3462 8.04385 11.3737 8.04427 11.4003 8.03885C11.4269 8.03343 11.452 8.0223 11.4739 8.00623C11.4958 7.99015 11.5139 7.96952 11.527 7.94575L12.4248 6.304C12.5148 6.139 12.7638 6.1945 12.7765 6.38125L12.9093 8.386C12.9125 8.43441 12.9344 8.47966 12.9704 8.51225C13.0063 8.54483 13.0535 8.56222 13.102 8.56075L14.2083 8.5255C14.2427 8.52431 14.2768 8.53263 14.3068 8.54954C14.3368 8.56645 14.3616 8.5913 14.3784 8.62136C14.3952 8.65143 14.4034 8.68555 14.4021 8.71997C14.4008 8.75439 14.39 8.78779 14.371 8.8165L13.7043 9.82225C13.6889 9.84549 13.6789 9.87185 13.675 9.89943C13.6712 9.92701 13.6735 9.95511 13.6818 9.98168C13.6901 10.0083 13.7043 10.0326 13.7232 10.0531C13.7421 10.0735 13.7654 10.0894 13.7913 10.0998L17.3253 11.5195C17.485 11.5832 17.4288 11.8218 17.2578 11.8083L13.8738 11.5307C13.8479 11.5287 13.8219 11.532 13.7974 11.5405C13.7729 11.549 13.7504 11.5624 13.7314 11.5801C13.7123 11.5977 13.6972 11.6191 13.6868 11.6429C13.6765 11.6666 13.6712 11.6923 13.6713 11.7182V12.832C13.6712 12.8676 13.6611 12.9025 13.6419 12.9326C13.6228 12.9626 13.5955 12.9866 13.5633 13.0017C13.531 13.0168 13.4951 13.0224 13.4598 13.0179C13.4244 13.0133 13.3911 12.9988 13.3638 12.976L12.5658 12.3092C12.5425 12.2899 12.5149 12.2764 12.4853 12.27C12.4557 12.2636 12.4251 12.2644 12.3959 12.2724C12.3667 12.2805 12.3399 12.2955 12.3177 12.3161C12.2956 12.3367 12.2788 12.3624 12.2688 12.391L11.2968 15.1397C11.23 15.3295 10.9548 15.3055 10.921 15.1068L10.4028 12.0385C10.3987 12.0141 10.3898 11.9907 10.3766 11.9697C10.3635 11.9487 10.3463 11.9306 10.326 11.9163C10.3058 11.902 10.283 11.8919 10.2588 11.8864C10.2346 11.881 10.2096 11.8804 10.1853 11.8847L8.644 12.16C8.60477 12.1671 8.56429 12.1615 8.52846 12.144C8.49263 12.1265 8.4633 12.0981 8.44474 12.0628C8.42618 12.0275 8.41934 11.9872 8.42524 11.9478C8.43113 11.9083 8.44944 11.8718 8.4775 11.8435Z"/>
</svg>
