    <svg width="54" height="70" viewBox="0 0 54 70" xmlns="http://www.w3.org/2000/svg">
    <path d="M6.81641 0H9.97224V3.11791H12.8597V0H16.0156V9.43833H12.8597V6.27958H9.97224V9.43833H6.81932L6.81641 0ZM20.1631 3.12958H17.3864V0H26.0985V3.12958H23.3189V9.43833H20.1631V3.12958ZM27.481 0H30.771L32.7952 3.31625L34.8164 0H38.1064V9.43833H34.9652V4.76L32.7952 8.11708H32.7397L30.5668 4.76291V9.43833H27.481V0ZM39.6756 0H42.8343V6.32041H47.2677V9.44124H39.6756V0Z" />
    <path fill-rule="evenodd" clip-rule="evenodd" d="M6.7175 64.3767L0.75 13.7579H53.25L47.2796 64.3708L26.9708 70L6.7175 64.3767ZM18.7837 36.6683L18.2179 30.31H41.9742L42.5283 24.1033H11.4367L13.1108 42.8779H34.6271L33.9067 50.9279L26.9825 52.8004H26.9767L20.0642 50.9337L19.6208 45.9842H13.385L14.2542 55.7317L26.9708 59.2608L39.7079 55.7317L41.2596 38.3367L41.4113 36.6713H18.7837V36.6683Z" />
    </svg>