    <svg width="62" height="62" viewBox="0 0 62 62" xmlns="http://www.w3.org/2000/svg">
    <path d="M0.375 0.375V61.625H61.625V0.375H0.375ZM33.7081 48.1434C33.7081 54.1044 30.2081 56.8256 25.1091 56.8256C20.5022 56.8256 17.8356 54.4478 16.4684 51.5625L21.1584 48.7319C22.0619 50.3309 22.8822 51.685 24.8641 51.685C26.7497 51.685 27.9528 50.9456 27.9528 48.0625V28.4975H33.7081V48.1434ZM47.3231 56.8256C41.9769 56.8256 38.5184 54.2837 36.8363 50.9456L41.5262 48.2397C42.7578 50.25 44.37 51.7397 47.2006 51.7397C49.5784 51.7397 51.1119 50.5497 51.1119 48.8959C51.1119 46.9272 49.5522 46.2294 46.9141 45.0678L45.4791 44.4531C41.3228 42.69 38.5753 40.4609 38.5753 35.7709C38.5753 31.4506 41.8697 28.1694 46.9972 28.1694C50.6613 28.1694 53.2863 29.4403 55.1741 32.7762L50.6897 35.6484C49.7053 33.8853 48.6378 33.1875 46.9841 33.1875C45.3041 33.1875 44.2366 34.255 44.2366 35.6484C44.2366 37.3722 45.3041 38.0678 47.7781 39.1484L49.2131 39.7631C54.1087 41.8544 56.8563 44.0025 56.8563 48.8128C56.8563 53.9819 52.7809 56.8234 47.3253 56.8234L47.3231 56.8256Z" />
    </svg>