    <svg width="85" height="47" viewBox="0 0 85 47" xmlns="http://www.w3.org/2000/svg">
    <path d="M42.5 0.479126C18.6681 0.479126 0 10.5906 0 23.5C0 36.4094 18.6681 46.5208 42.5 46.5208C66.3319 46.5208 85 36.4094 85 23.5C85 10.5906 66.3319 0.479126 42.5 0.479126ZM38.0871 7.56246H42.7267L41.2533 14.6458H45.3971C48.025 14.6458 49.7887 15.0141 50.7946 15.9314C51.7756 16.8381 52.0731 18.3256 51.68 20.3514L49.8383 28.8125H45.1208L46.8173 20.9889C47.0227 19.9158 46.9413 19.1685 46.58 18.7754C46.2223 18.3823 45.4325 18.1875 44.2496 18.1875H40.5344L38.2925 28.8125H33.6458L38.0871 7.56246ZM17.7083 14.6458H27.1504C31.6519 14.6458 34.379 17.6633 33.3129 22.1648C32.0733 27.3958 28.7583 28.8125 22.6525 28.8125H19.7342L18.8098 34.125H14.1171L17.7083 14.6458ZM54.8958 14.6458H64.3379C68.8394 14.6458 71.5665 17.6633 70.5004 22.1648C69.2608 27.3958 65.9423 28.8125 59.84 28.8125H56.9217L55.9973 34.125H51.3046L54.8958 14.6458ZM21.7281 18.1875L20.3929 25.2708H23.421C26.0419 25.2708 28.4785 24.9733 28.8858 21.0633C29.0381 19.551 28.4077 18.1875 25.3796 18.1875H21.7281ZM58.9156 18.1875L57.5804 25.2708H60.6085C63.2294 25.2708 65.666 24.9733 66.0733 21.0633C66.2256 19.551 65.5988 18.1875 62.5671 18.1875H58.9156Z"/>
    </svg>