<svg width="24" height="24" viewBox="0 0 24 24" xmlns="http://www.w3.org/2000/svg">
<path d="M9.825 20.7C8.10833 20.2167 6.70833 19.271 5.625 17.863C4.54167 16.455 4 14.834 4 13C4 12.05 4.15833 11.1457 4.475 10.287C4.79167 9.42832 5.24167 8.64099 5.825 7.92499C6.00833 7.72499 6.23333 7.62065 6.5 7.61199C6.76667 7.60332 7.00833 7.70765 7.225 7.92499C7.40833 8.10832 7.50433 8.33332 7.513 8.59999C7.52167 8.86665 7.434 9.11665 7.25 9.34999C6.85 9.86665 6.54167 10.4333 6.325 11.05C6.10833 11.6667 6 12.3167 6 13C6 14.35 6.396 15.5543 7.188 16.613C7.98 17.6717 9.00067 18.3923 10.25 18.775C10.4667 18.8417 10.646 18.9667 10.788 19.15C10.93 19.3333 11.0007 19.5333 11 19.75C11 20.0833 10.8833 20.346 10.65 20.538C10.4167 20.73 10.1417 20.784 9.825 20.7ZM14.175 20.7C13.8583 20.7833 13.5833 20.725 13.35 20.525C13.1167 20.325 13 20.0583 13 19.725C13 19.525 13.071 19.3333 13.213 19.15C13.355 18.9667 13.534 18.8417 13.75 18.775C15 18.375 16.021 17.65 16.813 16.6C17.605 15.55 18.0007 14.35 18 13C18 11.3333 17.4167 9.91665 16.25 8.74999C15.0833 7.58332 13.6667 6.99999 12 6.99999H11.925L12.325 7.39999C12.5083 7.58332 12.6 7.81665 12.6 8.09999C12.6 8.38332 12.5083 8.61665 12.325 8.79999C12.1417 8.98332 11.9083 9.07499 11.625 9.07499C11.3417 9.07499 11.1083 8.98332 10.925 8.79999L8.825 6.69999C8.725 6.59999 8.65433 6.49165 8.613 6.37499C8.57167 6.25832 8.55067 6.13332 8.55 5.99999C8.54933 5.86665 8.57033 5.74165 8.613 5.62499C8.65567 5.50832 8.72633 5.39999 8.825 5.29999L10.925 3.19999C11.1083 3.01665 11.3417 2.92499 11.625 2.92499C11.9083 2.92499 12.1417 3.01665 12.325 3.19999C12.5083 3.38332 12.6 3.61665 12.6 3.89999C12.6 4.18332 12.5083 4.41665 12.325 4.59999L11.925 4.99999H12C14.2333 4.99999 16.125 5.77499 17.675 7.32499C19.225 8.87499 20 10.7667 20 13C20 14.8167 19.4583 16.4333 18.375 17.85C17.2917 19.2667 15.8917 20.2167 14.175 20.7Z"/>
</svg>
