<svg viewBox="0 0 20 20" fill="none" xmlns="http://www.w3.org/2000/svg">
<path d="M20.6859 16.0186C20.887 15.881 21 15.6946 21 15.5002C21 15.3058 20.887 15.1194 20.6859 14.9818L16.636 12.2149C16.5363 12.1468 16.4178 12.0927 16.2875 12.0559C16.1571 12.019 16.0174 12 15.8763 12C15.7352 12 15.5955 12.019 15.4652 12.0559C15.3348 12.0927 15.2164 12.1468 15.1166 12.2149C15.0168 12.2831 14.9377 12.3639 14.8837 12.453C14.8297 12.542 14.8019 12.6374 14.8019 12.7338C14.8019 12.8301 14.8297 12.9256 14.8837 13.0146C14.9377 13.1036 15.0168 13.1845 15.1166 13.2526L17.3334 14.7667L9.07404 14.7667C8.78919 14.7667 8.516 14.8439 8.31458 14.9815C8.11316 15.1191 8 15.3057 8 15.5002C8 15.6948 8.11316 15.8813 8.31458 16.0189C8.516 16.1565 8.78919 16.2338 9.07404 16.2338H17.3334L15.1166 17.7478C14.9152 17.8854 14.8021 18.072 14.8022 18.2666C14.8023 18.4611 14.9155 18.6477 15.117 18.7853C15.3185 18.9228 15.5917 19 15.8766 19C16.1615 19 16.4346 18.9226 16.636 18.785L20.6859 16.0186Z"/>
<path d="M4.31411 6.98142C4.11297 7.11896 4 7.3054 4 7.49979C4 7.69418 4.11297 7.88062 4.31411 8.01816L8.36397 10.7851C8.46374 10.8532 8.58218 10.9073 8.71253 10.9441C8.84288 10.981 8.98259 11 9.12368 11C9.26477 11 9.40448 10.981 9.53483 10.9441C9.66518 10.9073 9.78362 10.8532 9.88338 10.7851C9.98315 10.7169 10.0623 10.6361 10.1163 10.547C10.1703 10.458 10.1981 10.3626 10.1981 10.2662C10.1981 10.1699 10.1703 10.0744 10.1163 9.98542C10.0623 9.89639 9.98315 9.8155 9.88338 9.74736L7.66656 8.23333H15.926C16.2108 8.23333 16.484 8.15605 16.6854 8.01848C16.8868 7.88092 17 7.69434 17 7.49979C17 7.30524 16.8868 7.11866 16.6854 6.9811C16.484 6.84353 16.2108 6.76625 15.926 6.76625H7.66656L9.88338 5.25222C10.0848 5.11461 10.1979 4.928 10.1978 4.73343C10.1977 4.53887 10.0845 4.35229 9.88303 4.21475C9.68154 4.0772 9.4083 3.99995 9.12342 4C8.83855 4.00005 8.56536 4.07738 8.36397 4.21499L4.31411 6.98142Z"/>
</svg>
