<svg width="24" height="24" viewBox="0 0 24 24"  xmlns="http://www.w3.org/2000/svg">
<path d="M3.10299 11.525C4.55199 9.438 7.06799 8.865 8.53699 9.001H11.06C11.588 9.091 11.734 9.31 12.387 10.343C12.507 10.667 14.442 10.449 14.95 10.502C15.509 9.961 14.95 8.851 16.19 9.008C18.32 9.008 20.359 8.917 21.292 9.054C21.678 9.111 21.863 9.459 21.919 9.844C22.142 11.394 21.876 12.529 21.619 12.788C20.932 14.004 18.949 15.183 17.967 14.996C15.133 14.996 14.52 14.922 14.274 15.392L13.41 17.627C12.833 18.857 10.81 21.283 7.41599 20.971C4.02199 20.659 2.54599 17.945 2.24399 16.657C1.94099 15.833 1.65399 13.614 3.10399 11.525M13.49 5.003V3.002M10.994 6.004L9.99599 5.004M15.985 6.004L16.983 5.004" stroke-width="1.5" stroke-linecap="round" stroke-linejoin="round"/>
<path d="M8.08398 17C8.61442 17 9.12313 16.7893 9.4982 16.4142C9.87327 16.0391 10.084 15.5304 10.084 15C10.084 14.4696 9.87327 13.9609 9.4982 13.5858C9.12313 13.2107 8.61442 13 8.08398 13C7.55355 13 7.04484 13.2107 6.66977 13.5858C6.2947 13.9609 6.08398 14.4696 6.08398 15C6.08398 15.5304 6.2947 16.0391 6.66977 16.4142C7.04484 16.7893 7.55355 17 8.08398 17Z"  stroke-width="1.5" stroke-linecap="round" stroke-linejoin="round"/>
</svg>
