<svg width="41" height="25" viewBox="0 0 41 25" xmlns="http://www.w3.org/2000/svg">
<path d="M36.181 20V11.8297H31.6191V20H27.4V1H31.6191V8.4026H36.181V1H40.4V20H36.181Z"/>
<path d="M16.9277 1.02936C18.7097 1.02359 20.2586 1.27058 21.5743 1.77035C22.8899 2.25211 23.955 3.17571 24.7694 4.54114C25.6019 5.90651 26.0221 7.83124 26.0302 10.3153C26.0415 13.8075 25.2574 16.2671 23.6779 17.6943C22.1164 19.1034 19.9676 19.8124 17.2315 19.8213L11.2373 19.8407L11.1765 1.04797L16.9277 1.02936ZM16.6431 4.86446L16.679 15.9619L17.543 15.9591C18.2631 15.9567 18.8295 15.7839 19.2424 15.4406C19.6733 15.0971 19.9865 14.5201 20.1819 13.7094C20.3773 12.8988 20.4726 11.7734 20.468 10.3333C20.4634 8.91129 20.3518 7.8046 20.1332 7.01326C19.9326 6.20388 19.6247 5.64685 19.2097 5.34217C18.7947 5.0195 18.2451 4.85927 17.5611 4.86149L16.6431 4.86446Z"/>
<path d="M9.82745 16.8481C9.83269 18.4682 9.54002 19.8102 8.94944 20.8742C8.35885 21.9381 7.60551 22.7686 6.6894 23.3656C5.79128 23.9625 3.20459 24.5641 1.99994 25L0.999969 21C1.70106 20.7097 3.2778 20.4515 3.60053 20.0544C3.92332 19.6754 4.1289 19.2337 4.21727 18.7294C4.32364 18.225 4.37543 17.5408 4.37263 16.6768L4.32211 1.07018L9.77631 1.05253L9.82745 16.8481Z"/>
</svg>
